<?xml version="1.0" encoding="UTF-8" standalone="no"?>
<!DOCTYPE svg PUBLIC "-//W3C//DTD SVG 1.1//EN" "http://www.w3.org/Graphics/SVG/1.1/DTD/svg11.dtd">
<svg width="100%" height="100%" viewBox="0 0 2048 2048" version="1.1" xmlns="http://www.w3.org/2000/svg" xmlns:xlink="http://www.w3.org/1999/xlink" xml:space="preserve" xmlns:serif="http://www.serif.com/" style="fill-rule:evenodd;clip-rule:evenodd;stroke-linecap:round;stroke-linejoin:round;stroke-miterlimit:1.5;">
    <g transform="matrix(1,0,0,1,9.99514,-69.4657)">
        <path d="M113,982C113,982 156.079,853.308 280,729C310.279,698.626 394.495,662.597 709,583C912.447,531.511 1133.49,508.725 1252,507C1370.51,505.275 1541,518.78 1741,710C1941,901.22 1929.34,1186.28 1928,1240C1926.66,1293.72 1920.66,1442.07 1764,1578C1636.62,1688.52 1455.21,1678.33 1406,1680C1358.91,1681.6 1108.72,1649.1 1024,1643C939.284,1636.9 892.647,1638.75 772,1658C651.353,1677.25 560.419,1667.97 452,1652C343.581,1636.04 218.947,1515.35 190,1447C124.613,1292.62 156.602,1343.01 103,1157.5C93.194,1123.56 106.076,1032.82 113,982Z" style="fill:rgb(221,160,77);fill-opacity:0.1;"/>
        <path d="M113,982C113,982 156.079,853.308 280,729C310.279,698.626 394.495,662.597 709,583C912.447,531.511 1133.49,508.725 1252,507C1370.51,505.275 1541,518.78 1741,710C1941,901.22 1929.34,1186.28 1928,1240C1926.66,1293.72 1920.66,1442.07 1764,1578C1636.62,1688.52 1455.21,1678.33 1406,1680C1358.91,1681.6 1108.72,1649.1 1024,1643C939.284,1636.9 892.647,1638.75 772,1658C651.353,1677.25 560.419,1667.97 452,1652C343.581,1636.04 218.947,1515.35 190,1447C124.613,1292.62 156.602,1343.01 103,1157.5C93.194,1123.56 106.076,1032.82 113,982ZM142.306,989.137C138.238,1018.9 132.374,1061.16 130.238,1097.46C128.98,1118.84 128.541,1137.82 131.821,1149.17C184.79,1332.49 153.011,1282.75 217.624,1435.3C230.825,1466.47 266.447,1509.07 310.526,1546.2C354.479,1583.22 407.069,1615.06 456.37,1622.32C561.709,1637.83 650.055,1647.08 767.274,1628.38C891.211,1608.6 939.127,1606.81 1026.15,1613.08C1110.17,1619.12 1358.28,1651.6 1404.98,1650.02C1451.56,1648.44 1623.78,1659.94 1744.34,1555.34C1890.9,1428.17 1896.76,1289.51 1898.01,1239.25C1899.29,1187.85 1911.64,914.659 1720.27,731.684C1528.86,548.676 1365.86,535.346 1252.44,536.997C1135.44,538.7 917.216,561.25 716.36,612.083C529.721,659.319 425.045,690.926 364.725,715.236C329.843,729.293 311.637,739.757 301.246,750.18C192.591,859.175 148.738,971.508 142.306,989.137Z" style="fill:rgb(221,160,77);"/>
    </g>
    <g transform="matrix(1,0,0,1,9.99514,-69.4657)">
        <path d="M109.621,1180.75C109.621,1180.75 167.283,1541 769,1553C838.342,1554.38 891.939,1556.65 1014,1528C1083.66,1511.65 1248.52,1552.61 1347,1544C1445.48,1535.39 1607.68,1546.66 1711,1396C1814.32,1245.34 1728.82,964.912 1695,854C1661.18,743.088 1544.58,556.597 1415,522C1285.42,487.403 1004.39,521.2 815,558C625.611,594.8 428.597,662.102 395,667C361.403,671.898 276.437,714.965 226,783C175.563,851.035 111.276,923.743 99.449,1061C99.449,1061 100.269,1160.43 109.621,1180.75Z" style="fill:rgb(235,178,108);fill-opacity:0.07;"/>
        <path d="M109.621,1180.75C109.621,1180.75 167.283,1541 769,1553C838.342,1554.38 891.939,1556.65 1014,1528C1083.66,1511.65 1248.52,1552.61 1347,1544C1445.48,1535.39 1607.68,1546.66 1711,1396C1814.32,1245.34 1728.82,964.912 1695,854C1661.18,743.088 1544.58,556.597 1415,522C1285.42,487.403 1004.39,521.2 815,558C625.611,594.8 428.597,662.102 395,667C361.403,671.898 276.437,714.965 226,783C175.563,851.035 111.276,923.743 99.449,1061C99.449,1061 100.269,1160.43 109.621,1180.75ZM115.457,1061.65C115.523,1067.99 116.089,1111.47 119.228,1144.41C120.483,1157.59 121.772,1168.88 124.155,1174.06C124.764,1175.38 125.19,1176.78 125.42,1178.22C125.42,1178.22 145.958,1301.98 286.353,1403.83C382.241,1473.4 533.139,1532.29 769.319,1537C837.536,1538.36 890.264,1540.61 1010.35,1512.42C1039.45,1505.59 1084.47,1507.95 1134.59,1513.13C1205.56,1520.47 1287.36,1533.15 1345.61,1528.06C1440.69,1519.75 1598.04,1532.43 1697.81,1386.95C1737.31,1329.35 1747.3,1251.77 1743.76,1172.79C1738.27,1050.37 1699.74,924.393 1679.7,858.667C1659.93,793.842 1611.06,702.557 1547.92,632.586C1506.94,587.169 1460.03,550.584 1410.87,537.458C1282.84,503.273 1005.19,537.344 818.052,573.706C628.335,610.57 430.963,677.927 397.308,682.833C365.721,687.437 286.273,728.563 238.853,792.529C189.941,858.506 127.107,928.773 115.457,1061.65Z" style="fill:rgb(235,178,108);"/>
    </g>
    <g id="Eye" transform="matrix(1,0,0,1,9.99514,-69.4657)">
        <g transform="matrix(1,0,0,1,-21.537,-35)">
            <circle cx="800.733" cy="942.733" r="150.733" style="fill:rgb(235,177,108);fill-opacity:0.11;"/>
            <path d="M800.733,792C883.925,792 951.466,859.541 951.466,942.733C951.466,1025.92 883.925,1093.47 800.733,1093.47C717.541,1093.47 650,1025.92 650,942.733C650,859.541 717.541,792 800.733,792ZM800.733,812C872.886,812 931.466,870.579 931.466,942.733C931.466,1014.89 872.886,1073.47 800.733,1073.47C728.579,1073.47 670,1014.89 670,942.733C670,870.579 728.579,812 800.733,812Z" style="fill:rgb(235,178,108);"/>
        </g>
        <g transform="matrix(0.93125,0,0,0.93125,-438.398,83.2953)">
            <circle cx="1315" cy="910" r="80" style="fill:rgb(235,177,108);fill-opacity:0.25;"/>
            <path d="M1315,830C1359.15,830 1395,865.847 1395,910C1395,954.153 1359.15,990 1315,990C1270.85,990 1235,954.153 1235,910C1235,865.847 1270.85,830 1315,830ZM1315,838.591C1354.41,838.591 1386.41,870.588 1386.41,910C1386.41,949.412 1354.41,981.409 1315,981.409C1275.59,981.409 1243.59,949.412 1243.59,910C1243.59,870.588 1275.59,838.591 1315,838.591Z" style="fill:rgb(235,178,108);"/>
        </g>
        <g transform="matrix(1,0,0,1,-498.804,35.7328)">
            <circle cx="1296" cy="907" r="35" style="fill:rgb(225,168,92);"/>
        </g>
    </g>
    <g id="Eye1" serif:id="Eye" transform="matrix(1,0,0,1,521.995,-81.4657)">
        <g transform="matrix(1,0,0,1,-21.537,-35)">
            <circle cx="800.733" cy="942.733" r="150.733" style="fill:rgb(235,178,108);fill-opacity:0.09;"/>
            <path d="M800.733,792C883.925,792 951.466,859.541 951.466,942.733C951.466,1025.92 883.925,1093.47 800.733,1093.47C717.541,1093.47 650,1025.92 650,942.733C650,859.541 717.541,792 800.733,792ZM800.733,812C872.886,812 931.466,870.579 931.466,942.733C931.466,1014.89 872.886,1073.47 800.733,1073.47C728.579,1073.47 670,1014.89 670,942.733C670,870.579 728.579,812 800.733,812Z" style="fill:rgb(235,178,108);"/>
        </g>
        <g transform="matrix(0.93125,0,0,0.93125,-440.398,82.2953)">
            <circle cx="1315" cy="910" r="80" style="fill:rgb(235,177,108);fill-opacity:0.27;"/>
            <path d="M1315,830C1359.15,830 1395,865.847 1395,910C1395,954.153 1359.15,990 1315,990C1270.85,990 1235,954.153 1235,910C1235,865.847 1270.85,830 1315,830ZM1315,838.591C1354.41,838.591 1386.41,870.588 1386.41,910C1386.41,949.412 1354.41,981.409 1315,981.409C1275.59,981.409 1243.59,949.412 1243.59,910C1243.59,870.588 1275.59,838.591 1315,838.591Z" style="fill:rgb(235,178,108);"/>
        </g>
        <g transform="matrix(1,0,0,1,-500.804,34.7328)">
            <circle cx="1296" cy="907" r="35" style="fill:rgb(225,168,92);"/>
        </g>
        <g transform="matrix(1,0,0,1,-527.995,54.4657)">
            <path d="M939.924,1274C939.924,1274 923.854,1160.13 1057.47,1155C1191.08,1149.87 1180.49,1263.59 1180,1274" style="fill:none;stroke:rgb(235,178,108);stroke-width:14px;"/>
        </g>
    </g>
</svg>
