<?xml version="1.0" encoding="UTF-8" standalone="no"?>
<!DOCTYPE svg PUBLIC "-//W3C//DTD SVG 1.1//EN" "http://www.w3.org/Graphics/SVG/1.1/DTD/svg11.dtd">
<svg width="100%" height="100%" viewBox="0 0 2048 2048" version="1.1" xmlns="http://www.w3.org/2000/svg" xmlns:xlink="http://www.w3.org/1999/xlink" xml:space="preserve" xmlns:serif="http://www.serif.com/" style="fill-rule:evenodd;clip-rule:evenodd;stroke-linejoin:round;stroke-miterlimit:2;">
    <g id="Icon">
        <g id="Main">
            <g id="Shadow" transform="matrix(1,0,0,1,9.99514,-69.4657)">
                <path d="M113,982C113,982 156.079,853.308 280,729C310.279,698.626 394.495,662.597 709,583C912.447,531.511 1133.49,508.725 1252,507C1370.51,505.275 1541,518.78 1741,710C1941,901.22 1929.34,1186.28 1928,1240C1926.66,1293.72 1920.66,1442.07 1764,1578C1636.62,1688.52 1455.21,1678.33 1406,1680C1358.91,1681.6 1108.72,1649.1 1024,1643C939.284,1636.9 892.647,1638.75 772,1658C651.353,1677.25 560.419,1667.97 452,1652C343.581,1636.04 218.947,1515.35 190,1447C124.613,1292.62 156.602,1343.01 103,1157.5C93.194,1123.56 106.076,1032.82 113,982Z" style="fill:rgb(216,150,62);"/>
            </g>
            <g id="Base" transform="matrix(1,0,0,1,9.99514,-69.4657)">
                <path d="M109.621,1180.75C109.621,1180.75 167.283,1541 769,1553C838.342,1554.38 891.939,1556.65 1014,1528C1083.66,1511.65 1248.52,1552.61 1347,1544C1445.48,1535.39 1607.68,1546.66 1711,1396C1814.32,1245.34 1728.82,964.912 1695,854C1661.18,743.088 1544.58,556.597 1415,522C1285.42,487.403 1004.39,521.2 815,558C625.611,594.8 428.597,662.102 395,667C361.403,671.898 276.437,714.965 226,783C175.563,851.035 111.276,923.743 99.449,1061C99.449,1061 100.269,1160.43 109.621,1180.75Z" style="fill:rgb(234,169,94);"/>
            </g>
            <g id="Reflection" transform="matrix(0.796644,0.604449,-0.741157,0.976821,752.939,-315.513)">
                <ellipse cx="380" cy="933.733" rx="105" ry="159.733" style="fill:white;fill-opacity:0.14;"/>
            </g>
        </g>
        <g id="Mouth">
            <g id="Throat">
                <path id="Throat_First" d="M838.485,1095.31C838.485,1095.31 1036.68,1208.36 1247.7,1085.89C1247.7,1085.89 1243.12,1269.84 1043.57,1280.42C906.199,1287.71 844.528,1160.18 838.485,1095.31Z" style="fill:rgb(136,32,49);"/>
                <path id="Throat_Second" d="M887.764,1164.75C887.764,1164.75 909.922,1264.11 1039.46,1252.63C1168.99,1241.15 1175.47,1210.92 1200.09,1156.58L887.764,1164.75Z" style="fill:rgb(114,22,35);"/>
                <path id="Throat_Third" d="M957.704,1184.73C957.704,1184.73 958.453,1244.57 1054.87,1239.32C1117.08,1235.93 1143.93,1212.75 1148.25,1174.8L957.704,1184.73Z" style="fill:rgb(84,16,28);"/>
            </g>
            <g id="Tongue">
                <path id="Tongue_Reflection" d="M952.457,1262.68C952.457,1262.68 1009.39,1198.53 1079.46,1221.82C1079.46,1221.82 1153.67,1206.89 1166.68,1240.44C1179.69,1273.99 1149.57,1298.43 1133.84,1304.13C1118.11,1309.84 1084.47,1322.98 1055.62,1280.21C1055.62,1280.21 987.115,1285.72 952.457,1262.68Z" style="fill:rgb(238,61,55);"/>
                <path id="Tongue_Base" d="M996.017,1248.82C996.017,1248.82 1019.11,1261.4 1061.02,1265.79C1061.02,1265.79 1070.13,1295.13 1101.56,1295.23C1133,1295.33 1150.17,1270.38 1153.52,1262C1156.86,1253.62 1165.03,1233.23 1132.86,1229.62C1100.69,1226.02 1100.65,1228.67 1099.14,1230.53C1099.14,1230.53 1118.32,1244.66 1120.6,1255.14C1120.6,1255.14 1087.68,1228.04 1041.97,1222.92C1011.53,1219.5 995.538,1246.34 996.017,1248.82Z" style="fill:rgb(254,75,55);"/>
            </g>
            <g id="Teeth">
                <path id="Teeth_Base" d="M861.459,1106.36C861.459,1106.36 871.665,1143.03 875.71,1151.32C879.754,1159.62 880.603,1162.25 892.775,1166.14C904.947,1170.03 931.229,1186.93 1041.23,1193.9C1089.89,1195.94 1192.22,1163.08 1192.22,1163.08C1192.22,1163.08 1209.71,1156.52 1214.31,1139.1C1218.09,1124.8 1223.28,1099.04 1223.28,1099.04C1223.28,1099.04 1049.65,1188.31 861.459,1106.36Z" style="fill:rgb(255,241,240);"/>
                <path id="Teeth_Shadow" d="M861.462,1106.37C868.295,1107.47 1023.17,1187.67 1223.28,1099.04C1223.28,1099.04 1215.39,1140.69 1212.08,1145.06C1212.08,1145.06 1211.98,1124.11 1211.43,1120.54C1210.88,1116.97 1209.15,1115.98 1202.41,1118.26C1195.67,1120.54 1052.76,1186.79 885.4,1125.52C885.4,1125.52 876.37,1123.09 876.231,1130.93C876.086,1139.11 875.351,1142.07 875.61,1150.93C875.61,1150.93 868.446,1140.9 861.462,1106.37Z" style="fill:rgb(199,175,173);"/>
            </g>
        </g>
        <g id="Eyes">
            <g id="Right_Eye" transform="matrix(1,0,0,1,521.995,-81.4657)">
                <g transform="matrix(1,0,0,1,-21.537,-35)">
                    <circle cx="800.733" cy="942.733" r="150.733" style="fill:rgb(239,239,239);"/>
                </g>
                <g transform="matrix(0.93125,0,0,0.93125,-445.398,60.2953)">
                    <circle cx="1315" cy="910" r="80" style="fill:rgb(77,63,46);"/>
                </g>
                <g transform="matrix(1,0,0,1,-516.804,0.732832)">
                    <circle cx="1296" cy="907" r="35"/>
                </g>
                <g transform="matrix(1,0,0,1,-508.804,11.7328)">
                    <circle cx="1268" cy="876" r="20" style="fill:white;"/>
                </g>
            </g>
            <g id="Left_Eye" transform="matrix(1,0,0,1,9.99514,-69.4657)">
                <g transform="matrix(1,0,0,1,-21.537,-35)">
                    <circle cx="800.733" cy="942.733" r="150.733" style="fill:rgb(239,239,239);"/>
                </g>
                <g transform="matrix(0.93125,0,0,0.93125,-445.398,60.2953)">
                    <circle cx="1315" cy="910" r="80" style="fill:rgb(77,63,46);"/>
                </g>
                <g transform="matrix(1,0,0,1,-516.804,0.732832)">
                    <circle cx="1296" cy="907" r="35"/>
                </g>
                <g transform="matrix(1,0,0,1,-508.804,11.7328)">
                    <circle cx="1268" cy="876" r="20" style="fill:white;"/>
                </g>
            </g>
        </g>
    </g>
</svg>
